<svg width="256" height="256" viewBox="0 0 256 256" fill="none" xmlns="http://www.w3.org/2000/svg">
<path d="M97.829 234.336L128.039 251.573L157.171 234.951V144.455H97.829V234.336Z" fill="#E40035"/>
<path d="M202 205.398L231.058 181.615L239.077 55.692L202 38.4314V205.398Z" fill="#E40035"/>
<path d="M157.171 17.5619L128.039 4L97.829 18.0637V107.097H157.171V17.5619Z" fill="#E40035"/>
<path d="M53 38.9329L17 55.692L24.937 181.615L53 204.542V38.9329Z" fill="#E40035"/>
<path d="M97.829 234.336L128.039 251.573L157.171 234.951V144.455H97.829V234.336Z" fill="url(#paint0_linear_403_414)"/>
<path d="M202 205.398L231.058 181.615L239.077 55.692L202 38.4314V205.398Z" fill="url(#paint1_linear_403_414)"/>
<path d="M157.171 17.5619L128.039 4L97.829 18.0637V107.097H157.171V17.5619Z" fill="url(#paint2_linear_403_414)"/>
<path d="M53 38.9329L17 55.692L24.937 181.615L53 204.542V38.9329Z" fill="url(#paint3_linear_403_414)"/>
<defs>
<linearGradient id="paint0_linear_403_414" x1="58.025" y1="44.844" x2="173.741" y2="176.844" gradientUnits="userSpaceOnUse">
<stop stop-color="#FF31D9"/>
<stop offset="1" stop-color="#FF5BE1" stop-opacity="0"/>
</linearGradient>
<linearGradient id="paint1_linear_403_414" x1="58.025" y1="44.844" x2="173.741" y2="176.844" gradientUnits="userSpaceOnUse">
<stop stop-color="#FF31D9"/>
<stop offset="1" stop-color="#FF5BE1" stop-opacity="0"/>
</linearGradient>
<linearGradient id="paint2_linear_403_414" x1="58.025" y1="44.844" x2="173.741" y2="176.844" gradientUnits="userSpaceOnUse">
<stop stop-color="#FF31D9"/>
<stop offset="1" stop-color="#FF5BE1" stop-opacity="0"/>
</linearGradient>
<linearGradient id="paint3_linear_403_414" x1="58.025" y1="44.844" x2="173.741" y2="176.844" gradientUnits="userSpaceOnUse">
<stop stop-color="#FF31D9"/>
<stop offset="1" stop-color="#FF5BE1" stop-opacity="0"/>
</linearGradient>
</defs>
</svg>
